PathFileType	3	(X/Y/Z)	RCH0000002 BBF 15.c3d
DataRate	CameraRate	NumFrames	NumMarkers	Units	OrigDataRate	OrigDataStartFrame	OrigNumFrames
100.0	100.0	13	23	mm	100.0	312	276
Frame#	Time	T2			MAN			LASI			RASI			LPSI			LPAT			LKNE			LANK			LMED			LHEE			LTOE			RPAT			RKNE			RANK			RMED			RHEE			RTOE			RPSI			T10			RTHI			LTHI			RTIB			LTIB			
		X1	Y1	Z1	X2	Y2	Z2	X3	Y3	Z3	X4	Y4	Z4	X5	Y5	Z5	X6	Y6	Z6	X7	Y7	Z7	X8	Y8	Z8	X9	Y9	Z9	X10	Y10	Z10	X11	Y11	Z11	X12	Y12	Z12	X13	Y13	Z13	X14	Y14	Z14	X15	Y15	Z15	X16	Y16	Z16	X17	Y17	Z17	X18	Y18	Z18	X19	Y19	Z19	X20	Y20	Z20	X21	Y21	Z21	X22	Y22	Z22	X23	Y23	Z23	

312	3.110	624.42488	44.50635	943.10979	498.32263	27.38528	990.15810	550.21859	120.11237	653.09931	607.29179	-48.57831	646.02402	464.43498	30.38063	701.97959	498.39713	74.87662	374.36347	439.22749	125.95424	346.55886	350.16980	110.03742	81.49619	363.78724	43.43688	104.44895	319.82616	69.78112	121.91555	402.20064	77.73314	70.77427	726.69717	27.87002	430.26112	703.75367	-30.07041	381.89386	649.56901	-74.21929	128.21041	627.48612	-7.94110	127.89986	601.07651	-48.94050	157.68939	684.99687	-33.53764	108.27806	484.44360	-36.16611	695.83728	492.09153	9.65482	796.63957	678.49408	-108.40533	484.75606	457.58146	196.26651	469.88898	692.63534	-112.74537	286.08554	388.18735	183.60246	233.03983	
313	3.120	634.93133	44.23233	941.09562	508.93371	27.06111	988.45468	559.91194	121.53223	652.19471	618.76845	-46.53195	644.01591	474.86484	30.39589	699.79180	505.54018	76.33354	372.71046	445.62011	126.99160	345.96540	351.39753	110.49828	82.55416	365.53004	43.92328	105.44355	321.95323	70.26250	123.70517	403.15219	78.21256	70.80867	737.27493	33.99571	429.38651	717.21174	-24.80571	380.67469	673.91383	-70.10623	124.41681	649.19025	-4.77421	123.61693	623.30916	-46.77877	152.39683	708.29561	-28.09532	105.57839	495.43126	-35.92396	693.09418	502.22999	9.62090	794.79373	692.45095	-103.44835	483.38742	465.10588	197.39912	469.07989	712.83326	-107.69123	283.76497	392.25155	184.34530	233.23026	
314	3.130	645.65672	43.79874	939.02185	519.71646	26.51853	986.55610	570.08825	123.02277	651.03851	630.49038	-44.45362	641.85150	485.69170	30.65514	697.43493	513.44358	77.82016	370.79648	452.80243	128.02154	345.09544	352.90313	110.93599	83.74697	367.54697	44.37917	106.50441	324.45234	70.75957	125.67286	404.27537	78.62589	70.84407	747.24152	39.97721	427.38530	729.76863	-19.69892	378.52238	696.20088	-65.85004	120.09514	669.01583	-1.46062	118.93325	643.71406	-44.41347	146.75702	729.52711	-22.60579	102.33626	506.75335	-35.46750	690.27303	512.73693	9.71316	792.73810	706.00814	-98.51306	481.28586	473.26737	198.57611	467.98212	731.54349	-102.61425	280.67587	396.98451	185.06818	233.31986	
315	3.140	656.59740	43.21712	936.89386	530.66063	25.75954	984.46326	580.74000	124.58879	649.59506	642.43684	-42.35324	639.55686	496.88905	31.18624	694.91859	522.18317	79.33918	368.57328	460.84467	129.04214	343.88791	354.75815	111.35994	85.07345	369.89790	44.81849	107.62992	327.40706	71.29145	127.82049	405.62314	78.97583	70.87345	756.71741	45.67644	424.32513	741.46743	-14.86905	375.48044	716.10664	-61.60171	115.29134	686.73905	1.90419	113.92520	662.01614	-41.90885	140.86018	748.44499	-17.25958	98.62192	518.38380	-34.77611	687.41698	523.61943	9.96623	790.47259	719.14518	-93.71524	478.48056	482.10146	199.78929	466.54529	748.57104	-97.65633	276.86108	402.47544	185.77693	233.26719	
316	3.150	667.74082	42.50768	934.72253	541.74877	24.80164	982.18834	591.84677	126.22087	647.83900	654.56694	-40.25647	637.17760	508.41364	32.01249	692.26626	531.81642	80.87995	366.00332	469.80182	130.04513	342.29156	357.04825	111.78416	86.53082	372.64855	45.25760	108.81892	330.91024	71.88047	130.14487	407.25710	79.26723	70.89311	765.81911	50.95884	420.34424	752.36576	-10.42775	371.65646	733.38241	-57.53193	110.11245	702.19074	5.20251	108.71814	678.00461	-39.35897	134.84733	764.86650	-12.25449	94.55545	530.27556	-33.83404	684.58446	534.86803	10.41503	788.01198	731.83048	-89.17951	475.04578	491.63938	201.02153	464.72891	763.77614	-92.96674	272.42615	408.81231	186.47640	233.03268	
317	3.160	679.06576	41.69842	932.52747	552.95707	23.67853	979.75916	603.37476	127.89483	645.76131	666.82057	-38.20449	634.78097	520.20654	33.15012	689.51792	542.37952	82.41696	363.06837	479.71254	131.01546	340.27303	359.87457	112.22887	88.11658	375.87170	45.71604	110.07258	335.06304	72.55313	132.63901	409.24989	79.50878	70.90586	774.64563	55.69695	415.64542	762.52740	-6.47634	367.21900	747.88327	-53.81375	104.72127	715.27571	8.30438	103.47802	691.55726	-36.87988	128.90124	778.69328	-7.77686	90.29707	542.36197	-32.63204	681.84963	546.45511	11.09288	785.39031	744.02259	-85.03412	471.10317	501.90716	202.24690	462.50976	777.08870	-88.69195	267.53438	416.08162	187.17064	232.58403	
318	3.170	690.54298	40.82370	930.33960	564.25641	22.43942	977.22211	615.27698	129.57273	643.37466	679.12153	-36.25158	632.45519	532.19587	34.60538	686.73151	553.88545	83.90995	359.77778	490.59869	131.93185	337.82463	363.35268	112.72115	89.83059	379.64771	46.21707	111.39609	339.97223	73.34018	135.29349	411.68728	79.71508	70.92400	783.26648	59.77317	410.48166	772.01300	-3.10439	362.38658	759.58949	-50.60322	99.32097	725.98753	11.08050	98.39605	702.65812	-34.59779	123.22894	789.92678	-3.98229	86.03076	554.56062	-31.16920	679.30077	558.33472	12.02884	782.66352	755.67340	-81.40437	466.81846	512.92415	203.43182	459.88916	788.51690	-84.96546	262.39248	424.36641	187.86303	231.90240	
319	3.180	702.13620	39.92211	928.20261	575.61372	21.14695	974.64336	627.49435	131.20551	640.71743	691.38269	-34.46098	630.30554	544.30125	36.37180	683.98277	566.32316	85.30587	356.17526	502.46503	132.76832	334.97077	367.60838	113.29448	91.67692	384.06397	46.78762	112.79969	345.74506	74.27519	138.09792	414.66924	79.90872	70.97147	791.71309	63.08225	405.13461	780.87088	-0.38966	357.40964	768.61532	-48.02144	94.13148	734.41549	13.41603	93.66854	711.40410	-32.63523	118.03796	798.67480	-0.97928	81.94382	566.77915	-29.45484	677.03659	570.44415	13.24453	779.90978	766.73226	-78.40538	462.39197	524.70078	204.53745	456.89901	798.14711	-81.89932	257.22864	433.74185	188.55615	230.98874	
320	3.190	713.80355	39.03411	926.17318	586.99343	19.87366	972.10779	639.95786	132.73679	637.85564	703.51246	-32.89921	628.44775	556.43948	38.42785	681.36331	579.65792	86.54285	352.34292	515.29888	133.49671	331.77228	372.77038	113.98692	93.66523	389.21327	47.45734	114.29865	352.48237	75.39120	141.04198	418.30946	80.12185	71.08492	799.97500	65.53383	399.88837	789.12917	1.60141	352.54761	775.20159	-46.14147	89.36171	740.74118	15.22306	89.47472	717.99786	-31.09717	113.51013	805.14665	1.18131	78.20567	578.92274	-27.51014	675.16073	582.70720	14.75073	777.22720	777.15013	-76.13497	458.04316	537.23566	205.52282	453.60597	806.13341	-79.57824	252.26650	444.26821	189.25136	229.86982	
321	3.200	725.49933	38.19921	924.31955	598.35921	18.69719	969.71559	652.59184	134.10744	634.88227	715.42203	-31.62988	626.99898	568.53087	40.73560	678.97671	593.83293	87.55608	348.40146	529.06973	134.08980	328.32760	378.96076	114.83791	95.81135	395.19110	48.25678	115.91205	360.27050	76.71596	144.11597	422.73311	80.39687	71.31286	808.00153	67.05581	395.00232	796.79049	2.81353	348.04420	779.69125	-44.98236	85.18282	745.22407	16.44984	85.95656	722.72656	-30.05923	109.77805	809.63603	2.50895	74.94967	590.90200	-25.36916	673.77470	595.03883	16.54411	774.72890	786.88268	-74.66753	453.99087	550.51241	206.34860	450.11270	812.67680	-78.05691	247.69962	455.98219	189.94832	228.60309	
322	3.210	737.17602	37.45331	922.71858	609.67562	17.69479	967.57685	665.31801	135.26027	631.91381	727.03234	-30.70779	626.06782	580.50530	43.24071	676.93280	608.77215	88.28508	344.50592	543.72890	134.52493	324.77019	386.28465	115.88425	98.13646	402.09237	49.21474	117.66009	369.17343	78.26626	147.31033	428.07279	80.78571	71.71293	815.70864	67.59858	390.68705	803.83018	3.20388	344.10475	782.49106	-44.51102	81.70807	748.17748	17.08568	83.20380	725.92955	-29.55949	106.90883	812.49363	3.06808	72.26119	602.64036	-23.07896	672.97014	607.35080	18.60490	772.53585	795.89198	-74.04948	450.43215	564.49662	206.98092	446.55555	817.99705	-77.35986	243.67163	468.88788	190.64473	227.27904	
323	3.220	748.78657	36.82609	921.45122	620.90988	16.93736	965.80441	678.06015	136.14450	629.08390	738.27993	-30.17409	625.74433	592.30717	45.87420	675.34046	624.38443	88.68163	340.83688	559.20965	134.78743	321.26211	394.82088	117.15551	100.66467	410.00765	50.35510	119.56020	379.22672	80.04245	150.61409	434.46292	81.34737	72.34701	822.98976	67.13999	387.08738	810.19887	2.74526	340.87912	784.02592	-44.65023	78.98318	749.93894	17.16130	81.24699	727.96049	-29.59431	104.89852	814.09337	2.96643	70.17345	614.07990	-20.69840	672.82115	619.55756	20.89558	770.76808	804.14709	-74.29655	447.52303	579.13382	207.39491	443.09841	822.30213	-77.48285	240.26547	482.94957	191.33654	226.02006	
324	3.230	760.28665	36.33892	920.59690	632.03345	16.48396	964.50575	690.74869	136.71938	626.53462	749.12090	-30.05317	626.09160	603.89865	48.55601	674.29949	640.56860	88.71733	337.58770	575.42823	134.87361	317.98378	404.61550	118.66972	103.41894	419.01956	51.69351	121.62231	390.43443	82.02430	154.01229	442.03311	82.14361	73.27482	829.72896	65.69025	384.27525	815.82918	1.43124	338.45261	784.69434	-45.29030	76.98850	750.83979	16.74520	80.05914	729.15100	-30.11814	103.67800	814.79808	2.33999	68.67108	625.18468	-18.29544	673.37755	631.58181	23.36147	769.53535	811.62396	-75.39306	445.36436	594.34905	207.57750	439.92278	825.76152	-78.39448	237.50345	498.08822	192.01888	224.97460	
